<svg id="Layer_1" xmlns="http://www.w3.org/2000/svg" viewBox="0 0 209.1 253.9">
  <style>
    .st0{fill:#005683;} .st1{fill:#840033;} .st2{fill:#99002F;} .st3{fill:#FFFFFF;} .st4{fill:#FFD200;} .st5{fill:#FF8800;} .st6{fill:#581E02;stroke:#1D1D1B;stroke-width:2;stroke-miterlimit:10;} .st7{fill:#BA6932;stroke:#1D1D1B;stroke-miterlimit:10;} .st8{fill:#540022;stroke:#000000;stroke-width:3;stroke-miterlimit:10;} .st9{fill:#208C37;} .st10{fill:#632482;}
  </style>
  <path d="M203.9 35.6c-1.3-.3-3.4-.5-11.9-.5h-20.9c-6.4 0-15.4 0-21.7-.4-10.2-7.4-22-11.4-35-11.8-28.2-.9-53.2 11.3-66.8 32.3-4.6 4.4-13.2 9.3-15.5 9.8-3.9.9-6.4 4.3-6 8.1.3 2.8 2.3 5.9 6.7 7.3-.5.5-1 1-1.4 1.6-3 3.6-4.2 7.7-3.5 11.5.1.8.3 1.5.6 2.2-6.4 11-9.8 23.4-9.8 36.2 0 3.2.2 6.4.6 9.6-1-.2-2-.3-3-.3-4.9 0-9.4 2.1-12.4 5.8-3.3 4.1-4.5 9.6-3.3 15.4 2.5 11.9 20.5 32 34.9 35.4 1.4.3 2.8.5 4 .5 3.8 0 7-1.6 8.9-4.6.6-.9 1.1-1.9 1.4-2.9 9.8 6.8 21.2 11 33.2 12.2 2.6 8.5 9.6 9.9 14 9.9 6.6 0 12.3-2.7 16.3-7.6h1.1c2.8 0 6.2-.2 10.2-.8-12.6 14.2-30.9 22.4-44.4 22.4-5.7 0-13.3-1.4-17.4-8.3-5.4-9.1-14.1-14.8-22.7-14.8-9 0-15.2 6.3-15.5 15.8-.2 5.1 2.5 10.7 7.7 16.1 8.8 9.1 25.9 18.3 44.2 18.3 4 0 8-.5 11.8-1.3 32.4-7.7 61.5-33.6 69.9-62.2 31-23.6 28.5-88.7 18.2-117.6-.7-2-1.5-4-2.3-5.9 1.2.1 2.5.2 3.7.2 2.8 0 5.6-.4 8.2-1.2 16.1-4.8 23.4-16.8 23.2-23.3-.2-3.6-2.2-6.4-5.3-7.1z"/>
  <path class="st0" d="M35.8 169.2c-1.6-3-3.4-6-5.1-8.8 1.5 3.1 3.2 6 5.1 8.8z"/>
  <path class="st1" d="M151 111.6c-10-9-16.9-14.5-26.8-16.5-6.7-1.4-14.6.4-21.6 1.9-5.3 1.2-9.9 2.2-13.5 1.8-5.5-.6-9.8-3.5-11.1-7.4-.9-2.7-.6-7.1 5.5-12.5 2.5-2.2 5.6-4.1 8.9-5.6-4.8 0-9.5-.9-14.1-3.3-5.9 8.2-20.8 14.1-25.4 12.1-1-.5-2.2-1.2-3.2-2.3-.1.1-.2.2-.3.2 1.2 1.1 2.1 2.7 2.5 4.6.8 3.8-.5 7.8-3.5 10.8-2.6 2.6-5.9 4.1-9 4.1-2.2 0-4-.8-5.4-2.1-6.2 10-9.7 21.8-9.7 34.4 0 5.9.8 11.6 2.2 17 6.2 5.1 16.3 25.3 18.6 30.4.1.3.3.6.4 1C56 190 69.8 196.4 85 197.6c-.2-2.5-.1-5.2 0-7.9.1-3.3.2-6.6-.2-9.4-.4-2.3-.9-4.7-1.6-7.3-2.3-9.6-4.9-20.5 4.3-26.7 1.8-1.2 3.7-1.8 5.7-1.8 8.3 0 15.8 10 19.7 17.6 5.3-8.6 14-14 24.3-15 5.2-.5 10.4.1 14.7 1.7 1.5-5.5 2.3-11.2 2.3-17 0-6.9-1.1-13.7-3.2-20.2z"/>
  <path class="st2" d="M108.1 95.8c-1.9.4-3.7.8-5.5 1.2-5.3 1.2-9.9 2.2-13.5 1.8-5.5-.6-9.8-3.5-11.1-7.4-.9-2.7-.6-7.1 5.5-12.5.1-.1.2-.1.3-.2-3.9-1.3-8.1-2.1-12.3-2.4-6.8 4.6-15.3 7.2-18.6 5.7-1-.5-2.2-1.2-3.2-2.3-.1.1-.2.2-.3.2 1.2 1.1 2.1 2.7 2.5 4.6.8 3.8-.5 7.8-3.5 10.8-2.6 2.6-5.9 4.1-9 4.1-2.2 0-4-.8-5.4-2.1-6.2 10-9.7 21.8-9.7 34.4 0 5.9.8 11.6 2.2 17 4.1 3.4 10.1 13.6 14.2 21.5 7.9 5 17.3 8 27.3 8 5.6 0 10.9-.9 15.9-2.5l-.6-2.7c-2.3-9.6-4.9-20.5 4.3-26.7 1.8-1.2 3.7-1.8 5.7-1.8 6.4 0 12.3 5.9 16.4 12.1 5.9-8.3 9.3-18.4 9.3-29.4 0-11.8-4.1-22.7-10.9-31.4z"/>
  <path class="st3" d="M63.6 166.4c-2.8.2-5.1 0-7.9-.6-.8-8.4-1.4-19 2.9-37.4 7.7 20 16.2 34.7 16.3 34.8-1.6.7-6 2.8-11.3 3.2m-13-2.1c-22.1-10-26.2-33.9-18.7-52.2.2 18.1 5.3 32.3 18.7 52.2m29.9-4.5c3.5-15.1 9.3-29.6 12.8-44.7.7-2.9 1.2-7.5.2-12.6 10.2 16 9 40.8-13 57.3M35 106c10-15.4 29.1-27.9 50-12.5-.1 0-13.4.6-3.8 14.9 5.2 7.7 5.6 13.9 1.4 26.5-1.5 6.2-1.9 8.1-3.3 14.5-6.4-15.2-11.6-28.2-15.7-44.8 3.6-.5 7.7-1.1 5.6-3.5-.3-.3-19.3 1.6-19.5 1.6-1.5.2-1.7 2-1.7 2-.2 1.4.1 1.3 4.2 1.1 1.1 5.9 1.6 8.5 4.3 17.1-1.9 8.1-3.9 16.4-4.2 29.3C43.7 135 40.2 123 39.5 108c1.2-.7 2.9-.5 4-1.6.7-.8 1.1-2.5.2-2.7-3.3-.6-5.8 1.7-8.7 2.3m30.1-22.7C32.3 86 11 135.4 40 161.3c29.4 26.2 65.7-7.7 64.5-39.1-1-24.4-21.2-39.8-39.4-38.9"/>
  <path class="st4" d="M111.2 171.9c0-.1 0-.2-.1-.2-.2-.7-.4-1.4-.6-2.2-1.8-6.7-10.6-19.9-17.3-19.9-1 0-2 .3-2.9.9-5.9 3.9-4.7 11-2.2 21.4.6 2.6 1.2 5.2 1.6 7.7.5 3.2.4 6.8.3 10.3-.2 5.4-.4 11 2 13.4 1 1.1 2.6 1.6 4.9 1.6.7 0 1.3 0 1.9-.1.2 0 .4-.1.5-.1.4-.1.8-.1 1.2-.2.2 0 .3-.1.5-.1.4-.1.8-.3 1.2-.4.1 0 .2-.1.3-.1.5-.2.9-.5 1.3-.7l.1-.1c.4-.2.7-.5 1.1-.8.1-.1.2-.2.3-.2.3-.2.5-.5.8-.7l.3-.3c.3-.3.5-.6.8-.9l.1-.1c.3-.3.5-.7.8-1.1.1-.1.1-.2.2-.3.2-.3.3-.5.5-.8.1-.1.1-.2.2-.4l.3-.6c.1-.1.1-.3.2-.4.1-.2.2-.4.2-.5.2-.4.3-.7.4-1.1v-.1c.1-.2.2-.5.2-.7.3-.9.4-1.6.4-1.7 0-.1 0-.2.1-.3 1.9-5.9 2.6-10.9 1.1-18.2-.4-.7-.5-1.3-.7-2z"/>
  <path class="st5" d="M171.1 42.6c-7.4 0-18.1-.1-24.7-.6H145c.5.8 1.7 2.2 3.6 3.8l.5.4c13 11.1 22.7 13.4 28.6 13.4 2.1 0 4.1-.3 6.1-.9 9.1-2.7 14.7-8.4 16.9-12.7.8-1.6 1-2.7 1-3.2-1.2-.1-4.5-.2-9.6-.2h-21z"/>
  <path class="st4" d="M9.5 151.7c-1.9 2.3-2.5 5.6-1.8 9.2 1.9 9.2 18.2 27 29.3 29.7.8.2 1.6.3 2.3.3 1.7 0 2.4-.7 2.7-1.2 1.3-2.1.6-6.6-.5-9-3.1-7-12.8-25.4-17.7-29.1-2.5-1.9-5.1-2.9-7.7-2.9-2.6 0-4.9 1-6.6 3z"/>
  <path class="st5" d="M149.9 191.3c-3.7 2.2-7.4 4-10.9 5.4-11.5 21.1-36.5 37.2-58.2 37.7-11.2.2-19.9-4-24.6-12-5.3-8.9-13.4-12.2-18.6-10.8-3.5.9-5.5 3.8-5.7 8.3-.1 3.9 3.3 9.1 9.2 13.9 10.6 8.6 28.7 15.6 45.3 11.6 28.8-6.9 54.7-29.2 63.5-54.1zM33.7 72.3c-.2 0-.2.1-.2.1s.1.2.5.5c.8.5 3.8 1.9 12.2-.3-.3-1.9-.2-4.4.7-7.2-4.9 3.3-10.4 6.2-13.2 6.9z"/>
  <path class="st4" d="M169.3 75.2c-2.1-5.9-4.6-11.3-7.6-16.1-4.5-2.2-9.5-5.4-15-10.1l-.4-.4c-6.1-5.1-5.3-7.4-5-8.2.2-.6.6-1.1 1.2-1.5-8.3-5.3-17.8-8.3-28.2-8.6-25.8-.8-48.5 10.2-60.6 29.4-3.3 5.2-4.5 10-3.3 13.8.8 2.8 2.8 4.4 4.1 5.1 2.4 1 17.3-4.1 21.7-12.1.2-.4.7-.8 1.2-.9.5-.1 1-.1 1.5.2 10.2 6.3 21.7 3.4 31.6.2 1-.3 2 .2 2.3 1.2.2.5.1 1.1-.2 1.5 6.6-.2 13.2.8 19 3.1 1 .4 1.4 1.5 1.1 2.4-.4 1-1.5 1.4-2.4 1.1-14.3-5.6-33.7-2.9-44.1 6.3-3.6 3.1-5.1 6.2-4.4 8.6.8 2.4 4 4.4 7.9 4.8 3 .3 7.5-.7 12.3-1.8 7.4-1.6 15.7-3.5 23.2-2 12.1 2.5 20.1 9.7 32.2 20.7l1.5 1.3c.8.7.8 1.9.1 2.6-.4.4-.9.6-1.4.6-.4 0-.8-.2-1.2-.4 1.2 5.1 1.8 10.3 1.8 15.6 0 6.3-.9 12.6-2.6 18.6 1.9 1.1 3.5 2.4 4.7 3.9.6.8.5 2-.3 2.6-.8.6-2 .5-2.6-.3-3.2-4.2-11.4-6.6-19.5-5.8-5.9.6-16.7 3.4-22.8 15.5.2.6.4 1.2.6 1.7 3.2 11 2.4 17.6 0 25.3-.2 1.3-.7 2.9-1.4 4.5 8.2 0 22.7-1.8 38.1-12.4 28.9-19.9 26.4-83.1 16.9-110z"/>
  <path d="M203 39.2c-.9-.2-3.1-.4-11-.4h-21c-6.9 0-16.5-.1-23-.5-9.7-7.3-21.1-11.3-33.8-11.7-27.1-.8-50.9 10.7-63.7 30.9-4.9 4.9-14.4 10.3-17.6 11-1.5.3-2.6 1.3-3 2.6-.4 1.3 0 2.8 1.1 3.9 1 1 3.1 2.3 7.3 2.3 2.3 0 5.2-.4 8.8-1.4 1.4 3.1 3.7 5.1 5.7 5.9 4.6 2 19.5-3.9 25.4-12.1 4.6 2.4 9.3 3.3 14.1 3.3-3.3 1.5-6.4 3.4-8.9 5.6-6.1 5.4-6.3 9.8-5.5 12.5 1.2 3.9 5.6 6.8 11.1 7.4 3.6.4 8.2-.6 13.5-1.8 7-1.6 15-3.3 21.6-1.9 9.9 2 16.8 7.6 26.8 16.5 2.2 6.5 3.3 13.3 3.3 20.2 0 5.8-.8 11.5-2.3 17-4.3-1.6-9.5-2.3-14.7-1.7-10.3 1-19 6.5-24.3 15-3.9-7.6-11.4-17.6-19.7-17.6-2 0-3.9.6-5.7 1.8-9.2 6.1-6.6 17-4.3 26.7.6 2.6 1.2 5 1.6 7.3.4 2.8.3 6.1.2 9.4-.2 6.4-.4 13.1 3.4 17 2 2 4.8 3.1 8.4 3.1 7.5 0 12.3-3.9 15.2-8.3h2.1c4.8 0 11.6-.6 19.4-3-11.7 18.1-33.6 31.6-52.8 32-6.9.1-16.2-1.5-21.3-10.1-6.2-10.5-16.2-14.2-22.8-12.5-5.2 1.3-8.3 5.6-8.5 11.8-.2 5.1 3.7 11.3 10.5 16.9 9 7.4 23.3 13.6 37.8 13.6 3.6 0 7.2-.4 10.8-1.2 31.7-7.5 59.9-33 67.5-60.8 17.1-12.2 22.6-36.5 24.1-54.9 2-23.4-1.7-46.6-6.1-59.3-1.6-4.5-3.4-8.6-5.5-12.5 4.2 1.4 7.7 1.8 10.4 1.8 2.5 0 4.9-.3 7.1-1 14.6-4.4 20.7-15.1 20.5-19.7.1-1.5-.8-2.7-2.2-3.1zM46.2 72.6c-8.3 2.2-11.4.8-12.2.3-.4-.3-.5-.5-.5-.5s.1-.1.2-.1c2.8-.6 8.3-3.5 13.2-6.9-.8 2.8-.9 5.2-.7 7.2zM110.6 192c0 .1-.1.2-.1.3-.1.5-2.3 12.5-13.7 12.5-2.2 0-3.8-.5-4.9-1.6-2.3-2.4-2.1-8-2-13.4.1-3.5.2-7.1-.3-10.3-.4-2.5-1-5.1-1.6-7.7-2.5-10.4-3.7-17.5 2.2-21.4.9-.6 1.9-.9 2.9-.9 6.7 0 15.5 13.2 17.3 19.9 3 9.9 2.4 15.6.2 22.6zm-24.2 53.3c-16.7 3.9-34.8-3-45.3-11.6-5.9-4.8-9.3-10-9.2-13.9.1-4.4 2.2-7.4 5.7-8.3 5.3-1.4 13.3 1.9 18.6 10.8 4.7 7.9 13.4 12.2 24.6 12 21.7-.4 46.7-16.6 58.2-37.7 3.5-1.4 7.2-3.2 10.9-5.4-8.8 25-34.7 47.3-63.5 54.1zm82.9-170.1c9.5 26.9 12.1 90.1-17.1 110.2-15.4 10.6-29.9 12.4-38.1 12.4.7-1.6 1.2-3.2 1.4-4.5 2.4-7.7 3.2-14.4 0-25.3-.1-.5-.3-1.1-.6-1.7 6.1-12.1 16.9-14.9 22.8-15.5 8.1-.8 16.3 1.6 19.5 5.8.6.8 1.8 1 2.6.3.8-.6 1-1.8.3-2.6-1.2-1.5-2.8-2.8-4.7-3.9 1.7-6 2.6-12.3 2.6-18.6 0-5.3-.6-10.5-1.8-15.6.3.3.8.4 1.2.4.5 0 1-.2 1.4-.6.7-.8.6-1.9-.1-2.6l-1.5-1.3C145 101.2 137 93.9 124.9 91.4c-7.4-1.5-15.8.3-23.2 2-4.8 1.1-9.3 2.1-12.3 1.8-3.9-.4-7.1-2.3-7.9-4.8-.6-2.4.9-5.4 4.5-8.6 10.4-9.2 29.8-11.9 44.1-6.3 1 .4 2-.1 2.4-1.1.4-1-.1-2-1.1-2.4-5.8-2.3-12.4-3.3-19-3.1.3-.4.3-1 .2-1.5-.3-1-1.4-1.5-2.3-1.2-10 3.2-21.4 6.1-31.6-.2-.4-.3-1-.3-1.5-.2-.5.1-.9.5-1.2.9-4.3 7.9-19.3 13.1-21.7 12.1-1.4-.6-3.3-2.3-4.1-5.1-1.1-3.8 0-8.5 3.3-13.8 12.1-19.2 34.7-30.2 60.6-29.4 10.4.3 19.9 3.3 28.2 8.6-.5.4-.9.8-1.2 1.5-.3.8-1.1 3.1 5 8.2l.4.4c5.5 4.7 10.5 7.9 15 10.1 3.1 4.7 5.7 10 7.8 15.9zM200.7 46c-2.2 4.4-7.8 10-16.9 12.7-1.9.6-4 .9-6.1.9-5.9 0-15.7-2.3-28.6-13.4l-.5-.4c-1.9-1.6-3.1-3-3.6-3.8h1.4c6.6.5 17.2.6 24.7.6h21c5.1 0 8.4.1 9.6.2-.1.5-.2 1.5-1 3.2z"/>
  <path d="M74.4 56.8c-3 2.2-2.1 5 1.2 5.4 3.3.4 3.6.6 6.6-1.7 3.3-2.5 3.7-6.6 0-6.2-3.7.4-6.2 1.2-7.8 2.5z"/>
  <circle cx="61.9" cy="58.4" r="3.7"/>
  <circle cx="105.1" cy="48.1" r="3.7"/>
  <path d="M39.4 194.6c-1 0-2-.1-3.1-.4-12.6-3-29.9-22-32.1-32.5-1-4.7-.1-9.1 2.5-12.3 2.3-2.8 5.8-4.4 9.6-4.4 3.4 0 6.8 1.3 10 3.7 6.1 4.7 16.6 25.4 18.8 30.6.9 2.1 2.8 8.6.2 12.5-1 1.2-2.7 2.8-5.9 2.8zm-23.2-45.9c-2.7 0-5 1.1-6.7 3.1-1.9 2.3-2.5 5.6-1.8 9.2 1.9 9.2 18.2 27 29.3 29.7.8.2 1.6.3 2.3.3 1.7 0 2.4-.7 2.7-1.2 1.3-2.1.6-6.6-.5-9-3.1-7-12.8-25.4-17.7-29.1-2.4-2-5-3-7.6-3z"/>
  <path class="st6" d="M37.8 111.7s1.7.5 2.5 2.5c.9 2 .4 2.5 4.3 4.1s3.2 1.4 4.1 2.2 5.9 2 6.9 1.7c1-.3 4.1.2 4.1.2s3.1.5 4.8-.3l1.7-.8s1.2-.8 3.4-1.3 2.3-.9 4.3-3.5c1.9-2.6 4.4-11.2 5.1-14.8.7-3.6 3.2-10.2 1.3-14.3 0 0-.3-.5-.2-1.6.1-1.1-.6-3.9-3.8-5.2 0 0-.3-.1-.4-.9 0-.8-.7-2.1-2.2-2.7s-2.3-.6-2.8-.7c-.5-.1-1.2-.1-1.7-.7-.5-.7-1.7-1.9-4.6-2.2 0 0-.9-.2-1.7.4-.8.5-.2.5-1.5 0-1.3-.6-1.1-1-3.6-.9-2.4.1-2.7.9-2.7.9s-.5.2-.9 0-2.1-.8-3.3.1c-1.2.8-2.3 1.6-2.5 2.6l-.1.2s-2.3.6-4.2 3.8c-1.8 3.2-2 4.3-2 4.3s-5.2 15-5.5 17c-.3 2 .1 2.6.1 2.6s.3-.5-.1.8c-.3 1.1-.8 3.8 1.2 6.5z"/>
  <path class="st7" d="M48.3 119.9c.5-1 9.9-32.9 13.6-31.8 3.7 1.1 1.8 7.9-7.2 33.4.1-.1-2 1-6.4-1.6zm18-30.3s.2 10.9-7.3 32c0 0-1.4 1.3 4.9.5 0 0 6.5-20.1 6.9-23.5s1.3-9.8-4.5-9zm5.8-.3s7.2.4-3.7 30.6c0 0 3.5.8 5.5-4.5s4-15.3 4.5-20.5-3.7-8.2-6.3-5.6z"/>
  <path class="st7" d="M72.6 85.3s1.6-.9 5.8 1.3c4.2 2.2 2.6 4.8 1.1 12.7s1-4.3-.4-7.9c-1.4-3.6-3.4-4.2-6.9-4.7-.1 0-.7-.1.4-1.4zm-.1-1.3s.2-1.1-.5-1.8c0 0-.6-.7 1.6-1.3 2.2-.6 3.5.3 3.5.3s3.1 1.3 2.9 5.4c0 0-2.6-1.4-4.5-2.1-2-.7-3-.5-3-.5zm-3.6-5c-.4-.4 1.3-2.4 2.4-2.7s3.8.9 4.7 3.3c0 .9-3.6-.1-4.5 1.4-1-1.2-2.1-1.5-2.6-2zm-1.7-.9s.6-1.4 1.9-2.6c0 0-.1-.9-2.4-1.6-2.4-.6-1.7-.8-3.6-.3 0 0 .6.9.8 3.3-.1 0 2.7.8 3.3 1.2zm-5.7-1.2s.7-1.1.5-1.5c-.2-.4-.8-1.9-1-2-.3-.1-1.3-1-4.1-.5-2.7.4-1.8 1.1-1.8 1.1s2.5.4 3.8 3.4c0 0 1.7-.6 2.6-.5zm-5.1 1.5c.5.3.3-3.1-2.2-4.8s-5.9 2-5.9 2.5 1 .2 1.9-.2c.5-.1 1.9.1 6.2 2.5zM39.3 92.7l2.5-7.3s1.5-3 3.5-5.1c1.9-2.2 4-3.1 5.2-3 1.2.1 3.1 1.5 3.7 2.5.6 1-1.3-.5-2.9-1-2.2-.6-3.7.9-4.9 1.8-1.3.9-3.7 2.9-7.1 12.1z"/>
  <path class="st7" d="M41.9 90.3l-5.4 14.8s-1.2 3.3 1.2 6.3c0 0 5.8-18.2 6.7-19.7.9-1.5 4.1-9.4 9.2-9.4 0 0 .7-.5-2.5-1.1-3.1-.5-6 1.6-9.2 9.1zm-1.4 24.4s.1 2.4 3.8 3.2c0 0 8-22.4 9.9-25.7 1.9-3.3 4.2-6.2 3.2-7s-3-1.2-5.4 2.2c-3 4.3-6.1 11.3-11.5 27.3zm19.3-36.9c-2.8.3-6.3 5.9 3.2 9.2s8.4-3.7 8.4-3.7-1.4-6.2-11.6-5.5z"/>
  <path class="st4" d="M35.2 92.1c.6 3 2.6 3.7 4.2 3.7 2.1 0 4.5-1.1 6.3-3 2.1-2.1 3-4.9 2.5-7.4-.3-1.6-1.2-2.8-2.3-3.2-.2-.1-.4-.1-.7-.1-2 0-5.7 1.8-8.1 4.7-.9 1-2.3 3.1-1.9 5.3z"/>
  <path d="M39.3 99.5c-4.1 0-7.1-2.6-7.9-6.7-.5-2.7.5-5.7 2.7-8.4 2.9-3.5 7.5-6.1 11-6.1.8 0 1.5.1 2.1.4 2.3.9 4 3.1 4.6 5.9.8 3.8-.5 7.8-3.5 10.8-2.6 2.6-5.9 4.1-9 4.1zM45.2 82c-2 0-5.7 1.8-8.1 4.7-.9 1.1-2.3 3.2-1.9 5.3.6 3 2.6 3.7 4.2 3.7 2.1 0 4.5-1.1 6.3-3 2.1-2.1 3-4.9 2.5-7.4-.3-1.6-1.2-2.8-2.3-3.2-.2 0-.4-.1-.7-.1z"/>
  <path class="st8" d="M91.5 4.8c-.7-1-1.2-1.6-1.7-2.4 1.6-1.5 3-1 3.7.3.9 1.5 2.1 1.7 3.7 1.7 15.2.4 30.3.7 45.5 1.5 7.7.4 15.4 1.6 22.4 5.1 3.9 2 5.1 4.2 3.1 8-1.5 2.9-3.8 5.4-5.7 8.2-2.6 3.8-5.3 7.6-7.7 11.6-1 1.7-2.4 2.1-4.2 1.9-27.4-6.6-50.6-2.8-77.2 2.1-6.6 1.2-16.4 8.5-23 10.1-2.6.6-4.4 0-6.4-1.8-2.1-1.9-4.8-3.2-7.3-4.7-1.8-1.1-3.8-2-5.6-3.1-6.4-3.8-6.1-10.8 0-15.1C45 18.4 61.2 13.4 77.5 8.4c4.5-1.3 9.1-2.4 14-3.6z" id="X3sfHG_1_"/>
  <g id="XMLID_1_">
    <path d="M121.9 66.7c5.2.6 8.4 3.9 10.3 8.5.3.8.6 1.7.7 2.5.2 1.5-.7 2.8-2 3.2-1.4.4-2.6-.3-3.3-1.8-.5-1.2-.8-2.4-1.5-3.5-1.8-3.1-4.4-4-8.2-2.7 2.9 1.6 5.9 3.1 6.4 6.7.5 3.5-1 6.1-4.2 8.2 4 1.5 6.5 4.1 7.9 8 5.4-.9 9.9.6 12.6 5.4 2.9 5.1 1.6 9.8-2.1 14.1 3.4 6.9 2.7 11.3-2.8 16.5 2 3.4 2.6 7 1.1 10.8-1.1 2.7-3.1 4.7-5.8 6-5.7 2.8-11.2.5-15.7-6.5-.7.1-1.5.2-2.2.2-4.8.4-8.4-1.6-10.9-5.5-.8-1.2-1.5-2-3-2.4-3.7-.8-6.2-3.2-7.8-6.6-.4-.9-1.1-1.8-1.9-2.4-5.2-3.6-6.8-8.6-4.4-14.6.1-.3.2-.7.3-1.3-1.1.2-1.9.7-2.5 1.3l-1.2-1.2c.9-.8 1.8-1.6 2.8-1.8 3.1-.6 5.4-2.5 8.3-3.4.2-3.7 2-6.5 4.9-9.1-3.1-1-5.5-1.3-8 .4-3.6 2.5-6.3 5.8-9 9.2-.6.8-.9 2-2.3 2.1-.1-.4-.3-.7-.3-.9 2.4-4.3 5.8-7.8 9.3-11.3-3 .7-6.1 1.5-8.9 2.7-2.9 1.2-5.6 2.8-8.4 4.3-.2-.3-.4-.6-.5-1 3.5-3.1 7.9-4.7 12.2-7-2.7-.6-5.5-1.1-8.2-1.7 0-.2 0-.5.1-.7.6-.1 1.2-.5 1.8-.4 2.7.5 5.3 1.1 8 1.7.7.2 1.5.7 2.2.6 3.1-.2 6.2-.5 9.8-.8-1.7-1.5-3.1-2.6-4.4-3.9-1.3-1.3-3.5-1.6-4.3-3.6 1-1 1.8-.3 2.4.2 2.6 2.2 5.3 4.4 7.7 6.8 1.3 1.2 2.4 2 4.7 1.7-.2-.2-.3-.5-.5-.7l1.5-.9c1 1.7 1.5 1.7 4.4 1.3-.4-2.1-.7-4.2-1-6.3l1.6-.3c.2 1.2.7 2.4 1.1 3.7 1.6-1 3.1-1.9 4.3-2.6-.6-.8-1.2-1.5-1.9-2.3l1.3-1c1.2 1.5 3 2.1 5 1.9 2.5-.3 4.5-2.2 5-4.7s-.7-4.8-3.2-6c-1-.5-2.2-.7-3.3-1.1-.5-.2-.9-.5-1.4-.8 2.1-3.2 5.4-4.3 8.7-3 2.9 1.2 4.7 3.4 5.8 6.3.3.8.3 1.8 1.6 1.9.1-.3.5-.7.4-1-.7-3.7-2.6-6.8-6.1-8.5-4.8-2.3-9.7-.8-12.4 3.8-.8 1.3-1.6 2.4-3 3.1-.8.4-1.4 1.1-2 1.7-.7.7-1.1 1.4-1 2.3l-1.7.3c-.4-2.7-.9-5.3-1.3-7.9-.8.1-1.5.2-2.3.3l-.1-1.7c.7-.1 1.3-.5 1.9-1 .9-.9.7-1.9-.5-2.2-2.1-.4-4-.1-5.5 2l-1.4-.6c1.1-3 4.7-4.5 8-3.1 1.3.6 1.8 1.6 1.9 3 .2 2.1.4 4.3.6 6.8 1.8-1.3 3.5-2 4.6-3.8 2.5-4.2 6.2-6.5 11.2-5.9zm17.2 35.4c-1.7-3.2-5.9-5.8-10.8-4.4 0 3.7-1.1 7-3.9 9.6.8 1.4 1.4 2.7 2.1 4 4.1-1.1 7.4.5 10.6 2.3 3.5-3.7 4.1-7.7 2-11.5zM126 95.9c-1.1-3.5-4.4-6.3-7.9-6.6-4-.4-7.3 1.4-9.3 5.2 3.5 1.9 5.6 4.8 6.5 8.4 1.4.3 2.8.6 4.1 1 1.3.4 2.5 1.1 3.7 1.7 3-2.4 4.1-6.1 2.9-9.7zm-4.9 10.8c-4.2-2.9-10.4-1.8-13.4 2.4-2.9 4.1-1.8 10 2.4 13.1 4.3 3.1 10.3 2 13.3-2.3 2.8-4.1 1.7-10.4-2.3-13.2zm-7.8-3.4c-1.3-5.7-5.5-8.6-10.8-7.7-5 .8-8.4 5.3-7.8 10.4.6 4.9 4.5 8.3 9.5 8.1.6-5.6 3.7-9.1 9.1-10.8zm25.1 15.9c-1.6-4.9-6.5-7.5-11.4-5.8.2 5-2 8.8-6.4 11.4.9 4.7 6.5 8.2 12 6.3 4.6-1.6 7.3-7 5.8-11.9zm-3.8 23.7c1.9-3.5 1.6-6.9-.5-10-1.9.2-3.7.6-5.4.5-1.8-.1-3.6-.7-5.5-1.1-.3 4.1-2.7 6.8-5.8 9 1.7 4.1 4.5 6.2 8.5 6.5 3.8.1 6.8-1.6 8.7-4.9zm-30.4-26.5c-7.2-1.1-9.9-4.4-11.5-9.9-6 1.7-7.8 7.8-6.5 11.9 1.5 4.7 6.2 7.4 11.1 6.4 4.3-1 7.4-4.7 6.9-8.4zm16.6 13.3c-.6-1.4-1.6-2.6-2.5-4.1-3.8.7-7.4-.1-10.7-2.9-.9.7-1.6 1.2-2.3 1.8-2.6 2.4-3.8 6.8-1.8 10.8 1.9 3.6 5.6 5.8 9.6 5.2 4.1-.6 7.3-3.4 8-7.4.3-1.1.1-2.4-.3-3.4zm-20 3c-.3-3.3.5-6.1 2.9-9.1-3.7 1.9-6.6 3.9-10.8 3 1.9 3.7 4.1 5.8 7.9 6.1z"/>
    <path class="st9" d="M125 69.5c3.5 1.7 5.3 4.8 6.1 8.5.1.3-.3.7-.4 1-1.3-.1-1.3-1.1-1.6-1.9-1-2.9-2.8-5.1-5.8-6.3-3.3-1.3-6.6-.2-8.7 3 .5.3.9.6 1.4.8 1.1.4 2.3.6 3.3 1.1 2.5 1.2 3.6 3.5 3.2 6-.4 2.5-2.4 4.4-5 4.7-2 .3-3.8-.4-5-1.9-.4-.4-.7-.9-.9-1.5-.6-1.3-.9-2.7-1.5-4.8-1.3 1.3-2.1 2.2-3.1 3.2-.2-.4-.4-.7-.4-1.1-.1-.8.3-1.6 1-2.3.6-.6 1.3-1.3 2-1.7 1.3-.7 2.2-1.8 3-3.1 2.7-4.5 7.6-6 12.4-3.7zm-5.7 8.4c-1.8-1.4-3.8-1.9-6.2-1.2-.7 2.5-.7 4.6.8 6.6 1 1.3 2.4 1.6 3.9 1.2 1.6-.4 2.4-1.5 2.8-3 .5-1.5-.1-2.7-1.3-3.6z"/>
    <path d="M113.1 76.7c2.4-.7 4.4-.2 6.2 1.2 1.2.9 1.8 2.1 1.4 3.6-.4 1.5-1.3 2.7-2.8 3-1.5.4-2.9.1-3.9-1.2-1.6-1.9-1.7-4.1-.9-6.6zm4.8 2.6c-.8-.6-1.9-.8-2.8-1.2-.2.2-.5.4-.7.5.3 1.1.3 2.3.8 3.2.3.5 1.3.9 1.9.8.6-.1 1.4-.8 1.6-1.5.1-.4-.3-1.4-.8-1.8z"/>
    <path class="st9" d="M102.6 68.3c1.2.2 1.4 1.3.5 2.2-.5.5-1.2.8-1.9 1-1.3.3-2.7-.1-4.1-1.1 1.5-2.2 3.4-2.5 5.5-2.1z"/>
    <path d="M101.2 71.4l.1 1.7c-1.3.2-2.6.4-4 .6.1 1.2.2 2.3.4 3.5l-1.7.2c-.3-1.8-.5-3.6-.6-5.4-.1-.8.1-1.6.3-2.3l1.4.6c1.4 1 2.9 1.4 4.1 1.1z"/>
    <path class="st9" d="M101.3 73.1c.8-.1 1.5-.2 2.3-.3.4 2.6.9 5.2 1.3 7.9.4 2.2.7 4.3 1.1 6.5.3 2.1.7 4.2 1 6.3-2.9.4-3.4.4-4.4-1.3-.1-.2-.3-.4-.4-.7-2.6-4.5-3.9-9.3-4.6-14.3-.1-1.2-.3-2.3-.4-3.5 1.6-.3 2.9-.5 4.1-.6z"/>
    <path d="M110.1 78.3c.6 2.1.9 3.5 1.5 4.8.2.6.6 1 .9 1.5l-1.3 1-2.4-3c-1.3 1.4-1.4 2.8-1.2 4.3l-1.6.3c-.4-2.2-.7-4.4-1.1-6.5l1.7-.3c0 .4.2.7.4 1.1 1-1 1.8-1.9 3.1-3.2z"/>
    <path class="st10" d="M128.4 97.7c4.8-1.4 9.1 1.2 10.8 4.4 2.1 3.8 1.5 7.8-1.9 11.4-3.2-1.8-6.5-3.4-10.6-2.3-.7-1.3-1.4-2.6-2.1-4 2.7-2.5 3.8-5.8 3.8-9.5zm-10.2-8.4c3.5.3 6.8 3.1 7.9 6.6 1.1 3.6 0 7.3-2.9 9.7-1.2-.6-2.4-1.2-3.7-1.7-1.3-.4-2.6-.7-4.1-1-.9-3.6-3-6.5-6.5-8.4 2-3.8 5.3-5.6 9.3-5.2z"/>
    <path d="M96 77.4l1.7-.3c.7 5 2.1 9.8 4.6 14.3.1.3.3.5.4.7l-1.5.9c-1.2-2-2-3.9-3.5-5-4.1-2.8-8.5-5.3-12.9-7.6-1.9-1-4.2-1.6-6.9-.6 1.3 3.5 0 6-2.6 7.8-1.1.8-2.4 1.2-3.7 1.7-2.5.9-5.2 1.5-7.7 3.4.6.3 1 .6 1.4.8 3.9 2 5 3.9 3.1 6.3-.5.7-1.3 1.3-2.2 2.1-1.3 1-2.6 2.2-3.8 3.4l-1.1-1c1-1 1.9-2.1 2.9-3.1.4-.4.9-.7 1.4-1.1 2.5-2.1 2.4-3.2-.5-4.7-.6-.3-1.3-.5-1.9-.8-1.9-.9-2.1-2.1-.4-3.5.9-.7 2-1.3 3-1.8 1.9-.8 3.9-1.3 5.8-2.1 1.4-.6 2.8-1.4 3.9-2.4 1-.8 1.2-2.1.9-3.5-.5-2.5.4-3.7 2.9-3.9 2.5-.2 4.9.4 7.1 1.6 3.5 1.9 7 3.9 10.8 6-.1-.9-.2-1.6-.3-2.3-.3-1.7-.6-3.5-.9-5.3z"/>
    <path class="st9" d="M84.8 80.4c4.4 2.3 8.8 4.8 12.9 7.6 1.5 1.1 2.3 3 3.5 5 .1.2.3.5.5.7-2.3.3-3.4-.4-4.7-1.7-2.4-2.4-5.1-4.6-7.7-6.8-.6-.5-1.4-1.2-2.4-.2.8 2 3 2.3 4.3 3.6 1.3 1.3 2.8 2.4 4.4 3.9-3.6.3-6.7.6-9.8.8-.7 0-1.5-.5-2.2-.6-2.7-.6-5.3-1.2-8-1.7-.5-.1-1.2.3-1.8.4 0 .2 0 .5-.1.7 2.7.6 5.5 1.1 8.2 1.7-4.3 2.3-8.7 3.9-12.2 7l-1.3-1c1.8-2.4.8-4.2-3.1-6.3-.4-.2-.8-.4-1.4-.8 2.5-1.9 5.1-2.5 7.7-3.4 1.3-.5 2.6-.9 3.7-1.7 2.6-1.9 3.9-4.3 2.6-7.8 2.7-1 5-.4 6.9.6z"/>
    <path class="st10" d="M107.7 109.1c3-4.2 9.1-5.3 13.4-2.4 4 2.8 5.2 9.1 2.3 13.1-3 4.3-9 5.4-13.3 2.3-4.2-2.9-5.3-8.8-2.4-13z"/>
    <path class="st10" d="M102.5 95.6c5.3-.9 9.4 2 10.8 7.7-5.4 1.7-8.5 5.2-9.1 10.8-4.9.3-8.9-3.2-9.5-8.1-.5-5.1 2.8-9.5 7.8-10.4zm24.4 17.8c4.9-1.7 9.8.9 11.4 5.8 1.6 4.9-1.1 10.2-5.9 11.9-5.4 1.9-11.1-1.6-12-6.3 4.5-2.6 6.7-6.4 6.5-11.4z"/>
    <path class="st9" d="M89.8 95.7c2.4-1.7 4.9-1.5 8-.4-2.9 2.5-4.7 5.4-4.9 9.1-2.9.8-5.2 2.8-8.3 3.4-1 .2-1.9.9-2.8 1.8-.5.4-.9.9-1.3 1.3-.8.7-1.2 1.7-2 2.9-.4-1.1-.8-1.7-1-2.5-1.2-3.2-3.6-4.7-7-4.9-2.9-.2-5.6.7-8.2 1.9-.9.4-1.7.8-3.2 1.5 1.1-1.7 2.3-3.1 3.5-4.4 1.2-1.3 2.5-2.4 3.8-3.4 1-.7 1.7-1.4 2.2-2.1l1.3 1c.2.3.4.6.5 1 2.8-1.4 5.5-3.1 8.4-4.3 2.8-1.2 5.8-2 8.9-2.7-3.5 3.6-6.9 7-9.3 11.3-.1.2.1.5.3.9 1.4-.1 1.7-1.3 2.3-2.1 2.4-3.5 5.2-6.7 8.8-9.3z"/>
    <path class="st10" d="M134.1 132.9c2.1 3.1 2.4 6.6.5 10-1.9 3.4-4.9 5.1-8.7 4.8-4.1-.2-6.9-2.4-8.5-6.5 3.1-2.2 5.6-4.9 5.8-9 2 .4 3.7 1 5.5 1.1 1.7.2 3.5-.2 5.4-.4zm-41.4-26.3c1.6 5.4 4.3 8.7 11.5 9.9.5 3.7-2.6 7.4-6.9 8.4-4.9 1.1-9.6-1.6-11.1-6.4-1.3-4.2.5-10.2 6.5-11.9zm25.6 19c.9 1.5 1.9 2.7 2.5 4.1.4 1 .6 2.3.4 3.3-.7 4-3.9 6.9-8 7.4-4 .5-7.8-1.6-9.6-5.2-2-4-.8-8.4 1.8-10.8.6-.6 1.4-1.1 2.3-1.8 3.2 2.9 6.8 3.7 10.6 3z"/>
    <path d="M81.7 109.5l1.2 1.2c-.9.7-1.5 1.7-2.1 2.6-.7 1.1-1.1 2.8-2.8 2.7-1.7-.2-1.6-2-2-3.2-1.4-3.7-3.2-4.9-7.2-4.6-3 .3-5.7 1.4-8.3 2.9-1.1.6-2.3 1.8-3.4.6-1.1-1.1-.1-2.5.6-3.4 1.1-1.4 2.3-2.7 3.6-4.1l1.1 1c-1.2 1.3-2.3 2.7-3.5 4.4 1.4-.7 2.3-1.1 3.2-1.5 2.6-1.2 5.3-2 8.2-1.9 3.3.2 5.8 1.6 7 4.9.3.7.6 1.4 1 2.5.8-1.2 1.2-2.2 2-2.9.5-.3.9-.7 1.4-1.2z"/>
    <path class="st10" d="M103.7 123.6c-2.4 3-3.2 5.8-2.9 9.1-3.8-.3-6-2.5-7.9-6.1 4.2.9 7.1-1.1 10.8-3z"/>
  </g>
  <path class="st4" d="M170 104.6c-.4-.7-.8-1.5-1.1-2.3-.7-2.2-.7-4.3-1.7-6.4-1.2-2.6-2.5-5.1-4.1-7.4-3.2-4.8-7.4-7.8-11.9-11.4-3.4-2.7-6.6-4.8-10.4-6.4-1 1.5-2.8 2.4-5.1 1.6-.1 0-.1 0-.2-.1-.6.2-1.2.3-1.9.3-.6 0-1.2-.1-1.7-.3.6.5.9 1.4.6 2.1-.4 1-1.5 1.4-2.4 1.1-14.3-5.6-33.7-2.9-44.1 6.3-3.6 3.1-5.1 6.2-4.4 8.6.8 2.4 4 4.4 7.9 4.8 3 .3 7.5-.7 12.3-1.8 7.4-1.6 15.7-3.5 23.2-2 9.4 1.9 17 7.4 24.1 13.5 3.2 2.7 7 8 10.9 9.7.1 0 .1.1.2.1 2.3 1 9.8 1.5 11.5-.8 1.5-2-.7-7.2-1.7-9.2z"/>
  <path d="M158.6 113.4l-1.5-1.3C145 101.2 137 93.9 124.9 91.4c-7.4-1.5-15.8.3-23.2 2-4.8 1.1-9.3 2.1-12.3 1.8-3.9-.4-7.1-2.3-7.9-4.8-.6-2.4.9-5.4 4.5-8.6 10.4-9.2 29.8-11.9 44.1-6.3 1 .4 2-.1 2.4-1.1.3-.8 0-1.6-.6-2.1-.3-.1-.5-.2-.8-.4-.4-.1-.8-.1-1.1-.3-.3-.1-.5-.2-.8-.3 0 0-.1 0-.2-.1s-.3-.1-.4-.2c-.1 0-.2 0-.3-.1-.2 0-.4-.1-.5-.2 0 0-.1 0-.1-.1-.3-.1-.6-.1-.8-.2h-.2c-.4-.1-.9-.2-1.2-.3-.2 0-.4-.1-.6-.1-.5 0-.9-.1-1.4-.1-1.3-.1-2.3-.3-3.4-.7h-.3c-5-.4-10-.2-15 .1-2.6.8-5.3 1.6-7.9 2.5-4.8 1.6-9.6 3.7-13.4 7.1-6.1 5.4-6.3 9.8-5.5 12.5 1.2 3.9 5.6 6.8 11.1 7.4 3.6.4 8.2-.6 13.5-1.8 7-1.6 15-3.3 21.6-1.9 9.9 2 16.8 7.6 26.8 16.5.1.2.1.4.2.6.3.2.5.4.7.7 1.2 1.6 2.7 2.8 4.4 3.9 0-.2-.1-.4-.1-.6.3.2.6.4.9.4.5-.2 1-.3 1.4-.4.1-.1.2-.1.2-.2.7-.7.6-1.9-.1-2.6z"/>
</svg>
