<?xml version="1.0" encoding="utf-8"?>
<!-- Generator: Adobe Illustrator 19.2.1, SVG Export Plug-In . SVG Version: 6.00 Build 0)  -->
<svg version="1.1" id="Layer_1" xmlns="http://www.w3.org/2000/svg" xmlns:xlink="http://www.w3.org/1999/xlink" x="0px" y="0px"
	 viewBox="0 0 209.1 253.9" style="enable-background:new 0 0 209.1 253.9;" xml:space="preserve">
<style type="text/css">
	.st0{fill:#005683;}
	.st1{fill:#840033;}
	.st2{fill:#99002F;}
	.st3{fill:#FFFFFF;}
	.st4{fill:#FFD200;}
	.st5{fill:#FF8800;}
	.st6{fill:#581E02;stroke:#1D1D1B;stroke-width:2;stroke-miterlimit:10;}
	.st7{fill:#BA6932;stroke:#1D1D1B;stroke-miterlimit:10;}
	.st8{fill:#540022;stroke:#000000;stroke-width:3;stroke-miterlimit:10;}
	.st9{fill:#208C37;}
	.st10{fill:#632482;}
</style>
<path d="M203.9,35.6c-1.3-0.3-3.4-0.5-11.9-0.5c-2.7,0-5.9,0-9.2,0c-3.7,0-7.7,0-11.7,0c-6.4,0-15.4,0-21.7-0.4
	c-10.2-7.4-22-11.4-35-11.8c-28.2-0.9-53.2,11.3-66.8,32.3C43,59.6,34.4,64.5,32.1,65c-3.9,0.9-6.4,4.3-6,8.1
	c0.3,2.8,2.3,5.9,6.7,7.3c-0.5,0.5-1,1-1.4,1.6c-3,3.6-4.2,7.7-3.5,11.5c0.1,0.8,0.3,1.5,0.6,2.2c-6.4,11-9.8,23.4-9.8,36.2
	c0,3.2,0.2,6.4,0.6,9.6c-1-0.2-2-0.3-3-0.3c-4.9,0-9.4,2.1-12.4,5.8c-3.3,4.1-4.5,9.6-3.3,15.4c2.5,11.9,20.5,32,34.9,35.4
	c1.4,0.3,2.8,0.5,4,0.5c3.8,0,7-1.6,8.9-4.6c0.6-0.9,1.1-1.9,1.4-2.9c9.8,6.8,21.2,11,33.2,12.2c2.6,8.5,9.6,9.9,14,9.9
	c6.6,0,12.3-2.7,16.3-7.6c0.4,0,0.7,0,1.1,0c2.8,0,6.2-0.2,10.2-0.8c-12.6,14.2-30.9,22.4-44.4,22.4c0,0,0,0,0,0
	c-5.7,0-13.3-1.4-17.4-8.3c-5.4-9.1-14.1-14.8-22.7-14.8c-9,0-15.2,6.3-15.5,15.8c-0.2,5.1,2.5,10.7,7.7,16.1
	c8.8,9.1,25.9,18.3,44.2,18.3c4,0,8-0.5,11.8-1.3c32.4-7.7,61.5-33.6,69.9-62.2c31-23.6,28.5-88.7,18.2-117.6c-0.7-2-1.5-4-2.3-5.9
	c1.2,0.1,2.5,0.2,3.7,0.2c2.8,0,5.6-0.4,8.2-1.2c16.1-4.8,23.4-16.8,23.2-23.3C209,39.1,207,36.3,203.9,35.6z"/>
<g>
	<path class="st0" d="M35.8,169.2c-1.6-3-3.4-6-5.1-8.8C32.2,163.5,33.9,166.4,35.8,169.2z"/>
	<path class="st1" d="M151,111.6c-10-9-16.9-14.5-26.8-16.5c-6.7-1.4-14.6,0.4-21.6,1.9c-5.3,1.2-9.9,2.2-13.5,1.8
		c-5.5-0.6-9.8-3.5-11.1-7.4c-0.9-2.7-0.6-7.1,5.5-12.5c2.5-2.2,5.6-4.1,8.9-5.6c-4.8,0-9.5-0.9-14.1-3.3
		c-5.9,8.2-20.8,14.1-25.4,12.1c-1-0.5-2.2-1.2-3.2-2.3c-0.1,0.1-0.2,0.2-0.3,0.2c1.2,1.1,2.1,2.7,2.5,4.6c0.8,3.8-0.5,7.8-3.5,10.8
		c-2.6,2.6-5.9,4.1-9,4.1c-2.2,0-4-0.8-5.4-2.1c-6.2,10-9.7,21.8-9.7,34.4c0,5.9,0.8,11.6,2.2,17c6.2,5.1,16.3,25.3,18.6,30.4
		c0.1,0.3,0.3,0.6,0.4,1C56,190,69.8,196.4,85,197.6c-0.2-2.5-0.1-5.2,0-7.9c0.1-3.3,0.2-6.6-0.2-9.4c-0.4-2.3-0.9-4.7-1.6-7.3
		c-2.3-9.6-4.9-20.5,4.3-26.7c1.8-1.2,3.7-1.8,5.7-1.8c8.3,0,15.8,10,19.7,17.6c5.3-8.6,14-14,24.3-15c5.2-0.5,10.4,0.1,14.7,1.7
		c1.5-5.5,2.3-11.2,2.3-17C154.2,124.9,153.1,118.1,151,111.6z"/>
</g>
<g>
	<path class="st2" d="M108.1,95.8c-1.9,0.4-3.7,0.8-5.5,1.2c-5.3,1.2-9.9,2.2-13.5,1.8c-5.5-0.6-9.8-3.5-11.1-7.4
		c-0.9-2.7-0.6-7.1,5.5-12.5c0.1-0.1,0.2-0.1,0.3-0.2c-3.9-1.3-8.1-2.1-12.3-2.4c-6.8,4.6-15.3,7.2-18.6,5.7c-1-0.5-2.2-1.2-3.2-2.3
		c-0.1,0.1-0.2,0.2-0.3,0.2c1.2,1.1,2.1,2.7,2.5,4.6c0.8,3.8-0.5,7.8-3.5,10.8c-2.6,2.6-5.9,4.1-9,4.1c-2.2,0-4-0.8-5.4-2.1
		c-6.2,10-9.7,21.8-9.7,34.4c0,5.9,0.8,11.6,2.2,17c4.1,3.4,10.1,13.6,14.2,21.5c7.9,5,17.3,8,27.3,8c5.6,0,10.9-0.9,15.9-2.5
		c-0.2-0.9-0.4-1.8-0.6-2.7c-2.3-9.6-4.9-20.5,4.3-26.7c1.8-1.2,3.7-1.8,5.7-1.8c6.4,0,12.3,5.9,16.4,12.1
		c5.9-8.3,9.3-18.4,9.3-29.4C119,115.4,114.9,104.5,108.1,95.8z"/>
</g>
<path class="st3" d="M63.6,166.4c-2.8,0.2-5.1,0-7.9-0.6c-0.8-8.4-1.4-19,2.9-37.4c7.7,20,16.2,34.7,16.3,34.8
	C73.3,163.9,68.9,166,63.6,166.4 M50.6,164.3c-22.1-10-26.2-33.9-18.7-52.2C32.1,130.2,37.2,144.4,50.6,164.3 M80.5,159.8
	c3.5-15.1,9.3-29.6,12.8-44.7c0.7-2.9,1.2-7.5,0.2-12.6C103.7,118.5,102.5,143.3,80.5,159.8 M35,106c10-15.4,29.1-27.9,50-12.5
	c-0.1,0-13.4,0.6-3.8,14.9c5.2,7.7,5.6,13.9,1.4,26.5c-1.5,6.2-1.9,8.1-3.3,14.5c-6.4-15.2-11.6-28.2-15.7-44.8
	c3.6-0.5,7.7-1.1,5.6-3.5c-0.3-0.3-19.3,1.6-19.5,1.6c-1.5,0.2-1.7,2-1.7,2c-0.2,1.4,0.1,1.3,4.2,1.1c1.1,5.9,1.6,8.5,4.3,17.1
	c-1.9,8.1-3.9,16.4-4.2,29.3C43.7,135,40.2,123,39.5,108c1.2-0.7,2.9-0.5,4-1.6c0.7-0.8,1.1-2.5,0.2-2.7
	C40.4,103.1,37.9,105.4,35,106 M65.1,83.3C32.3,86,11,135.4,40,161.3c29.4,26.2,65.7-7.7,64.5-39.1C103.5,97.8,83.3,82.4,65.1,83.3"
	/>
<path class="st4" d="M111.2,171.9c0-0.1,0-0.2-0.1-0.2c-0.2-0.7-0.4-1.4-0.6-2.2c-1.8-6.7-10.6-19.9-17.3-19.9c-1,0-2,0.3-2.9,0.9
	c-5.9,3.9-4.7,11-2.2,21.4c0.6,2.6,1.2,5.2,1.6,7.7c0.5,3.2,0.4,6.8,0.3,10.3c-0.2,5.4-0.4,11,2,13.4c1,1.1,2.6,1.6,4.9,1.6
	c0.7,0,1.3,0,1.9-0.1c0.2,0,0.4-0.1,0.5-0.1c0.4-0.1,0.8-0.1,1.2-0.2c0.2,0,0.3-0.1,0.5-0.1c0.4-0.1,0.8-0.3,1.2-0.4
	c0.1,0,0.2-0.1,0.3-0.1c0.5-0.2,0.9-0.5,1.3-0.7c0,0,0.1-0.1,0.1-0.1c0.4-0.2,0.7-0.5,1.1-0.8c0.1-0.1,0.2-0.2,0.3-0.2
	c0.3-0.2,0.5-0.5,0.8-0.7c0.1-0.1,0.2-0.2,0.3-0.3c0.3-0.3,0.5-0.6,0.8-0.9c0,0,0.1-0.1,0.1-0.1c0.3-0.3,0.5-0.7,0.8-1.1
	c0.1-0.1,0.1-0.2,0.2-0.3c0.2-0.3,0.3-0.5,0.5-0.8c0.1-0.1,0.1-0.2,0.2-0.4c0.1-0.2,0.2-0.4,0.3-0.6c0.1-0.1,0.1-0.3,0.2-0.4
	c0.1-0.2,0.2-0.4,0.2-0.5c0.2-0.4,0.3-0.7,0.4-1.1c0,0,0,0,0-0.1c0.1-0.2,0.2-0.5,0.2-0.7v0c0.3-0.9,0.4-1.6,0.4-1.7
	c0-0.1,0-0.2,0.1-0.3c1.9-5.9,2.6-10.9,1.1-18.2C111.5,173.2,111.4,172.6,111.2,171.9z"/>
<path class="st5" d="M171.1,42.6c-7.4,0-18.1-0.1-24.7-0.6c-0.6,0-1.1,0-1.4,0c0.5,0.8,1.7,2.2,3.6,3.8l0.5,0.4
	c13,11.1,22.7,13.4,28.6,13.4c0,0,0,0,0,0c2.1,0,4.1-0.3,6.1-0.9c9.1-2.7,14.7-8.4,16.9-12.7c0.8-1.6,1-2.7,1-3.2
	c-1.2-0.1-4.5-0.2-9.6-0.2c-2.7,0-5.9,0-9.2,0C179.1,42.6,175.1,42.6,171.1,42.6z"/>
<path class="st4" d="M9.5,151.7c-1.9,2.3-2.5,5.6-1.8,9.2c1.9,9.2,18.2,27,29.3,29.7c0.8,0.2,1.6,0.3,2.3,0.3c1.7,0,2.4-0.7,2.7-1.2
	c1.3-2.1,0.6-6.6-0.5-9c-3.1-7-12.8-25.4-17.7-29.1c-2.5-1.9-5.1-2.9-7.7-2.9C13.5,148.7,11.2,149.7,9.5,151.7z"/>
<path class="st5" d="M149.9,191.3c-3.7,2.2-7.4,4-10.9,5.4c-11.5,21.1-36.5,37.2-58.2,37.7c-11.2,0.2-19.9-4-24.6-12
	c-5.3-8.9-13.4-12.2-18.6-10.8c-3.5,0.9-5.5,3.8-5.7,8.3c-0.1,3.9,3.3,9.1,9.2,13.9c10.6,8.6,28.7,15.6,45.3,11.6
	C115.2,238.5,141.1,216.2,149.9,191.3z"/>
<path class="st5" d="M33.7,72.3c-0.2,0-0.2,0.1-0.2,0.1c0,0,0.1,0.2,0.5,0.5c0.8,0.5,3.8,1.9,12.2-0.3c-0.3-1.9-0.2-4.4,0.7-7.2
	C42,68.7,36.5,71.6,33.7,72.3z"/>
<path class="st4" d="M169.3,75.2c-2.1-5.9-4.6-11.3-7.6-16.1c-4.5-2.2-9.5-5.4-15-10.1l-0.4-0.4c-6.1-5.1-5.3-7.4-5-8.2
	c0.2-0.6,0.6-1.1,1.2-1.5c-8.3-5.3-17.8-8.3-28.2-8.6c-25.8-0.8-48.5,10.2-60.6,29.4c-3.3,5.2-4.5,10-3.3,13.8
	c0.8,2.8,2.8,4.4,4.1,5.1c2.4,1,17.3-4.1,21.7-12.1c0.2-0.4,0.7-0.8,1.2-0.9c0.5-0.1,1-0.1,1.5,0.2c10.2,6.3,21.7,3.4,31.6,0.2
	c1-0.3,2,0.2,2.3,1.2c0.2,0.5,0.1,1.1-0.2,1.5c6.6-0.2,13.2,0.8,19,3.1c1,0.4,1.4,1.5,1.1,2.4c-0.4,1-1.5,1.4-2.4,1.1
	c-14.3-5.6-33.7-2.9-44.1,6.3c-3.6,3.1-5.1,6.2-4.4,8.6c0.8,2.4,4,4.4,7.9,4.8c3,0.3,7.5-0.7,12.3-1.8c7.4-1.6,15.7-3.5,23.2-2
	c12.1,2.5,20.1,9.7,32.2,20.7l1.5,1.3c0.8,0.7,0.8,1.9,0.1,2.6c-0.4,0.4-0.9,0.6-1.4,0.6c-0.4,0-0.8-0.2-1.2-0.4
	c1.2,5.1,1.8,10.3,1.8,15.6c0,6.3-0.9,12.6-2.6,18.6c1.9,1.1,3.5,2.4,4.7,3.9c0.6,0.8,0.5,2-0.3,2.6c-0.8,0.6-2,0.5-2.6-0.3
	c-3.2-4.2-11.4-6.6-19.5-5.8c-5.9,0.6-16.7,3.4-22.8,15.5c0.2,0.6,0.4,1.2,0.6,1.7c3.2,11,2.4,17.6,0,25.3c-0.2,1.3-0.7,2.9-1.4,4.5
	c8.2,0,22.7-1.8,38.1-12.4C181.3,165.3,178.8,102.1,169.3,75.2z"/>
<path d="M203,39.2c-0.9-0.2-3.1-0.4-11-0.4c-2.7,0-5.9,0-9.2,0c-3.8,0-7.8,0-11.8,0c-6.9,0-16.5-0.1-23-0.5
	c-9.7-7.3-21.1-11.3-33.8-11.7c-27.1-0.8-50.9,10.7-63.7,30.9c-4.9,4.9-14.4,10.3-17.6,11c-1.5,0.3-2.6,1.3-3,2.6
	c-0.4,1.3,0,2.8,1.1,3.9c1,1,3.1,2.3,7.3,2.3c2.3,0,5.2-0.4,8.8-1.4c1.4,3.1,3.7,5.1,5.7,5.9c4.6,2,19.5-3.9,25.4-12.1
	c4.6,2.4,9.3,3.3,14.1,3.3c-3.3,1.5-6.4,3.4-8.9,5.6c-6.1,5.4-6.3,9.8-5.5,12.5c1.2,3.9,5.6,6.8,11.1,7.4c3.6,0.4,8.2-0.6,13.5-1.8
	c7-1.6,15-3.3,21.6-1.9c9.9,2,16.8,7.6,26.8,16.5c2.2,6.5,3.3,13.3,3.3,20.2c0,5.8-0.8,11.5-2.3,17c-4.3-1.6-9.5-2.3-14.7-1.7
	c-10.3,1-19,6.5-24.3,15c-3.9-7.6-11.4-17.6-19.7-17.6c-2,0-3.9,0.6-5.7,1.8c-9.2,6.1-6.6,17-4.3,26.7c0.6,2.6,1.2,5,1.6,7.3
	c0.4,2.8,0.3,6.1,0.2,9.4c-0.2,6.4-0.4,13.1,3.4,17c2,2,4.8,3.1,8.4,3.1c7.5,0,12.3-3.9,15.2-8.3c0.7,0,1.4,0,2.1,0
	c4.8,0,11.6-0.6,19.4-3c-11.7,18.1-33.6,31.6-52.8,32c-6.9,0.1-16.2-1.5-21.3-10.1c-6.2-10.5-16.2-14.2-22.8-12.5
	c-5.2,1.3-8.3,5.6-8.5,11.8c-0.2,5.1,3.7,11.3,10.5,16.9c9,7.4,23.3,13.6,37.8,13.6c3.6,0,7.2-0.4,10.8-1.2
	c31.7-7.5,59.9-33,67.5-60.8c17.1-12.2,22.6-36.5,24.1-54.9c2-23.4-1.7-46.6-6.1-59.3c-1.6-4.5-3.4-8.6-5.5-12.5
	c4.2,1.4,7.7,1.8,10.4,1.8c0,0,0,0,0,0c2.5,0,4.9-0.3,7.1-1c14.6-4.4,20.7-15.1,20.5-19.7C205.3,40.8,204.4,39.6,203,39.2z
	 M46.2,72.6c-8.3,2.2-11.4,0.8-12.2,0.3c-0.4-0.3-0.5-0.5-0.5-0.5c0,0,0.1-0.1,0.2-0.1c2.8-0.6,8.3-3.5,13.2-6.9
	C46.1,68.2,46,70.6,46.2,72.6z M110.6,192c0,0.1-0.1,0.2-0.1,0.3c-0.1,0.5-2.3,12.5-13.7,12.5c-2.2,0-3.8-0.5-4.9-1.6
	c-2.3-2.4-2.1-8-2-13.4c0.1-3.5,0.2-7.1-0.3-10.3c-0.4-2.5-1-5.1-1.6-7.7c-2.5-10.4-3.7-17.5,2.2-21.4c0.9-0.6,1.9-0.9,2.9-0.9
	c6.7,0,15.5,13.2,17.3,19.9C113.4,179.3,112.8,185,110.6,192z M86.4,245.3c-16.7,3.9-34.8-3-45.3-11.6c-5.9-4.8-9.3-10-9.2-13.9
	c0.1-4.4,2.2-7.4,5.7-8.3c5.3-1.4,13.3,1.9,18.6,10.8c4.7,7.9,13.4,12.2,24.6,12c21.7-0.4,46.7-16.6,58.2-37.7
	c3.5-1.4,7.2-3.2,10.9-5.4C141.1,216.2,115.2,238.5,86.4,245.3z M169.3,75.2c9.5,26.9,12.1,90.1-17.1,110.2
	c-15.4,10.6-29.9,12.4-38.1,12.4c0.7-1.6,1.2-3.2,1.4-4.5c2.4-7.7,3.2-14.4,0-25.3c-0.1-0.5-0.3-1.1-0.6-1.7
	c6.1-12.1,16.9-14.9,22.8-15.5c8.1-0.8,16.3,1.6,19.5,5.8c0.6,0.8,1.8,1,2.6,0.3c0.8-0.6,1-1.8,0.3-2.6c-1.2-1.5-2.8-2.8-4.7-3.9
	c1.7-6,2.6-12.3,2.6-18.6c0-5.3-0.6-10.5-1.8-15.6c0.3,0.3,0.8,0.4,1.2,0.4c0.5,0,1-0.2,1.4-0.6c0.7-0.8,0.6-1.9-0.1-2.6l-1.5-1.3
	C145,101.2,137,93.9,124.9,91.4c-7.4-1.5-15.8,0.3-23.2,2c-4.8,1.1-9.3,2.1-12.3,1.8c-3.9-0.4-7.1-2.3-7.9-4.8
	C80.9,88,82.4,85,86,81.8c10.4-9.2,29.8-11.9,44.1-6.3c1,0.4,2-0.1,2.4-1.1c0.4-1-0.1-2-1.1-2.4c-5.8-2.3-12.4-3.3-19-3.1
	c0.3-0.4,0.3-1,0.2-1.5c-0.3-1-1.4-1.5-2.3-1.2c-10,3.2-21.4,6.1-31.6-0.2c-0.4-0.3-1-0.3-1.5-0.2c-0.5,0.1-0.9,0.5-1.2,0.9
	c-4.3,7.9-19.3,13.1-21.7,12.1c-1.4-0.6-3.3-2.3-4.1-5.1c-1.1-3.8,0-8.5,3.3-13.8c12.1-19.2,34.7-30.2,60.6-29.4
	c10.4,0.3,19.9,3.3,28.2,8.6c-0.5,0.4-0.9,0.8-1.2,1.5c-0.3,0.8-1.1,3.1,5,8.2l0.4,0.4c5.5,4.7,10.5,7.9,15,10.1
	C164.6,64,167.2,69.3,169.3,75.2z M200.7,46c-2.2,4.4-7.8,10-16.9,12.7c-1.9,0.6-4,0.9-6.1,0.9c0,0,0,0,0,0
	c-5.9,0-15.7-2.3-28.6-13.4l-0.5-0.4c-1.9-1.6-3.1-3-3.6-3.8c0.3,0,0.8,0,1.4,0c6.6,0.5,17.2,0.6,24.7,0.6c4,0,8,0,11.8,0
	c3.3,0,6.4,0,9.2,0c5.1,0,8.4,0.1,9.6,0.2C201.6,43.3,201.5,44.3,200.7,46z"/>
<path d="M74.4,56.8c-3,2.2-2.1,5,1.2,5.4c3.3,0.4,3.6,0.6,6.6-1.7c3.3-2.5,3.7-6.6,0-6.2C78.5,54.7,76,55.5,74.4,56.8z"/>
<circle cx="61.9" cy="58.4" r="3.7"/>
<circle cx="105.1" cy="48.1" r="3.7"/>
<path d="M39.4,194.6L39.4,194.6c-1,0-2-0.1-3.1-0.4c-12.6-3-29.9-22-32.1-32.5c-1-4.7-0.1-9.1,2.5-12.3c2.3-2.8,5.8-4.4,9.6-4.4
	c3.4,0,6.8,1.3,10,3.7c6.1,4.7,16.6,25.4,18.8,30.6c0.9,2.1,2.8,8.6,0.2,12.5C44.3,193,42.6,194.6,39.4,194.6z M16.2,148.7
	c-2.7,0-5,1.1-6.7,3.1c-1.9,2.3-2.5,5.6-1.8,9.2c1.9,9.2,18.2,27,29.3,29.7c0.8,0.2,1.6,0.3,2.3,0.3c1.7,0,2.4-0.7,2.7-1.2
	c1.3-2.1,0.6-6.6-0.5-9c-3.1-7-12.8-25.4-17.7-29.1C21.4,149.7,18.8,148.7,16.2,148.7z"/>
<g>
	<path class="st6" d="M37.8,111.7c0,0,1.7,0.5,2.5,2.5c0.9,2,0.4,2.5,4.3,4.1s3.2,1.4,4.1,2.2s5.9,2,6.9,1.7c1-0.3,4.1,0.2,4.1,0.2
		s3.1,0.5,4.8-0.3c1.7-0.8,1.7-0.8,1.7-0.8s1.2-0.8,3.4-1.3s2.3-0.9,4.3-3.5c1.9-2.6,4.4-11.2,5.1-14.8c0.7-3.6,3.2-10.2,1.3-14.3
		c0,0-0.3-0.5-0.2-1.6c0.1-1.1-0.6-3.9-3.8-5.2c0,0-0.3-0.1-0.4-0.9c0-0.8-0.7-2.1-2.2-2.7s-2.3-0.6-2.8-0.7
		c-0.5-0.1-1.2-0.1-1.7-0.7c-0.5-0.7-1.7-1.9-4.6-2.2c0,0-0.9-0.2-1.7,0.4c-0.8,0.5-0.2,0.5-1.5,0c-1.3-0.6-1.1-1-3.6-0.9
		c-2.4,0.1-2.7,0.9-2.7,0.9s-0.5,0.2-0.9,0s-2.1-0.8-3.3,0.1c-1.2,0.8-2.3,1.6-2.5,2.6l-0.1,0.2c0,0-2.3,0.6-4.2,3.8
		c-1.8,3.2-2,4.3-2,4.3s-5.2,15-5.5,17c-0.3,2,0.1,2.6,0.1,2.6s0.3-0.5-0.1,0.8C36.3,106.3,35.8,109,37.8,111.7z"/>
	<g>
		<path class="st7" d="M48.3,119.9c0.5-1,9.9-32.9,13.6-31.8c3.7,1.1,1.8,7.9-7.2,33.4C54.8,121.4,52.7,122.5,48.3,119.9z"/>
		<path class="st7" d="M66.3,89.6c0,0,0.2,10.9-7.3,32c0,0-1.4,1.3,4.9,0.5c0,0,6.5-20.1,6.9-23.5S72.1,88.8,66.3,89.6z"/>
		<path class="st7" d="M72.1,89.3c0,0,7.2,0.4-3.7,30.6c0,0,3.5,0.8,5.5-4.5s4-15.3,4.5-20.5S74.7,86.7,72.1,89.3z"/>
		<path class="st7" d="M72.6,85.3c0,0,1.6-0.9,5.8,1.3c4.2,2.2,2.6,4.8,1.1,12.7s1-4.3-0.4-7.9c-1.4-3.6-3.4-4.2-6.9-4.7
			C72.1,86.7,71.5,86.6,72.6,85.3z"/>
		<path class="st7" d="M72.5,84c0,0,0.2-1.1-0.5-1.8c0,0-0.6-0.7,1.6-1.3c2.2-0.6,3.5,0.3,3.5,0.3s3.1,1.3,2.9,5.4
			c0,0-2.6-1.4-4.5-2.1C73.5,83.8,72.5,84,72.5,84z"/>
		<path class="st7" d="M68.9,79c-0.4-0.4,1.3-2.4,2.4-2.7s3.8,0.9,4.7,3.3c0,0.9-3.6-0.1-4.5,1.4C70.5,79.8,69.4,79.5,68.9,79z"/>
		<path class="st7" d="M67.2,78.1c0,0,0.6-1.4,1.9-2.6c0,0-0.1-0.9-2.4-1.6c-2.4-0.6-1.7-0.8-3.6-0.3c0,0,0.6,0.9,0.8,3.3
			C63.8,76.9,66.6,77.7,67.2,78.1z"/>
		<path class="st7" d="M61.5,76.9c0,0,0.7-1.1,0.5-1.5c-0.2-0.4-0.8-1.9-1-2c-0.3-0.1-1.3-1-4.1-0.5c-2.7,0.4-1.8,1.1-1.8,1.1
			s2.5,0.4,3.8,3.4C58.9,77.4,60.6,76.8,61.5,76.9z"/>
		<path class="st7" d="M56.4,78.4c0.5,0.3,0.3-3.1-2.2-4.8s-5.9,2-5.9,2.5s1,0.2,1.9-0.2C50.7,75.8,52.1,76,56.4,78.4z"/>
		<path class="st7" d="M39.3,92.7l2.5-7.3c0,0,1.5-3,3.5-5.1c1.9-2.2,4-3.1,5.2-3c1.2,0.1,3.1,1.5,3.7,2.5c0.6,1-1.3-0.5-2.9-1
			c-2.2-0.6-3.7,0.9-4.9,1.8C45.1,81.5,42.7,83.5,39.3,92.7z"/>
		<path class="st7" d="M41.9,90.3l-5.4,14.8c0,0-1.2,3.3,1.2,6.3c0,0,5.8-18.2,6.7-19.7c0.9-1.5,4.1-9.4,9.2-9.4
			c0,0,0.7-0.5-2.5-1.1C48,80.7,45.1,82.8,41.9,90.3z"/>
		<path class="st7" d="M40.5,114.7c0,0,0.1,2.4,3.8,3.2c0,0,8-22.4,9.9-25.7c1.9-3.3,4.2-6.2,3.2-7s-3-1.2-5.4,2.2
			C49,91.7,45.9,98.7,40.5,114.7z"/>
		<path class="st7" d="M59.8,77.8C57,78.1,53.5,83.7,63,87s8.4-3.7,8.4-3.7S70,77.1,59.8,77.8z"/>
	</g>
</g>
<path class="st4" d="M35.2,92.1c0.6,3,2.6,3.7,4.2,3.7c2.1,0,4.5-1.1,6.3-3c2.1-2.1,3-4.9,2.5-7.4c-0.3-1.6-1.2-2.8-2.3-3.2
	c-0.2-0.1-0.4-0.1-0.7-0.1c-2,0-5.7,1.8-8.1,4.7C36.2,87.8,34.8,89.9,35.2,92.1z"/>
<path d="M39.3,99.5L39.3,99.5c-4.1,0-7.1-2.6-7.9-6.7c-0.5-2.7,0.5-5.7,2.7-8.4c2.9-3.5,7.5-6.1,11-6.1c0.8,0,1.5,0.1,2.1,0.4
	c2.3,0.9,4,3.1,4.6,5.9c0.8,3.8-0.5,7.8-3.5,10.8C45.7,98,42.4,99.5,39.3,99.5z M45.2,82c-2,0-5.7,1.8-8.1,4.7
	c-0.9,1.1-2.3,3.2-1.9,5.3c0.6,3,2.6,3.7,4.2,3.7c2.1,0,4.5-1.1,6.3-3c2.1-2.1,3-4.9,2.5-7.4c-0.3-1.6-1.2-2.8-2.3-3.2
	C45.7,82.1,45.5,82,45.2,82z"/>
<g id="X3sfHG_1_">
	<g>
		<path class="st8" d="M91.5,4.8c-0.7-1-1.2-1.6-1.7-2.4c1.6-1.5,3-1,3.7,0.3c0.9,1.5,2.1,1.7,3.7,1.7c15.2,0.4,30.3,0.7,45.5,1.5
			c7.7,0.4,15.4,1.6,22.4,5.1c3.9,2,5.1,4.2,3.1,8c-1.5,2.9-3.8,5.4-5.7,8.2c-2.6,3.8-5.3,7.6-7.7,11.6c-1,1.7-2.4,2.1-4.2,1.9
			c-27.4-6.6-50.6-2.8-77.2,2.1c-6.6,1.2-16.4,8.5-23,10.1c-2.6,0.6-4.4,0-6.4-1.8c-2.1-1.9-4.8-3.2-7.3-4.7c-1.8-1.1-3.8-2-5.6-3.1
			c-6.4-3.8-6.1-10.8,0-15.1C45,18.4,61.2,13.4,77.5,8.4C82,7.1,86.6,6,91.5,4.8z"/>
	</g>
</g>
<g>
	<g id="XMLID_1_">
		<g>
			<path d="M121.9,66.7c5.2,0.6,8.4,3.9,10.3,8.5c0.3,0.8,0.6,1.7,0.7,2.5c0.2,1.5-0.7,2.8-2,3.2c-1.4,0.4-2.6-0.3-3.3-1.8
				c-0.5-1.2-0.8-2.4-1.5-3.5c-1.8-3.1-4.4-4-8.2-2.7c2.9,1.6,5.9,3.1,6.4,6.7c0.5,3.5-1,6.1-4.2,8.2c4,1.5,6.5,4.1,7.9,8
				c5.4-0.9,9.9,0.6,12.6,5.4c2.9,5.1,1.6,9.8-2.1,14.1c3.4,6.9,2.7,11.3-2.8,16.5c2,3.4,2.6,7,1.1,10.8c-1.1,2.7-3.1,4.7-5.8,6
				c-5.7,2.8-11.2,0.5-15.7-6.5c-0.7,0.1-1.5,0.2-2.2,0.2c-4.8,0.4-8.4-1.6-10.9-5.5c-0.8-1.2-1.5-2-3-2.4c-3.7-0.8-6.2-3.2-7.8-6.6
				c-0.4-0.9-1.1-1.8-1.9-2.4c-5.2-3.6-6.8-8.6-4.4-14.6c0.1-0.3,0.2-0.7,0.3-1.3c-1.1,0.2-1.9,0.7-2.5,1.3l-1.2-1.2
				c0.9-0.8,1.8-1.6,2.8-1.8c3.1-0.6,5.4-2.5,8.3-3.4c0.2-3.7,2-6.5,4.9-9.1c-3.1-1-5.5-1.3-8,0.4c-3.6,2.5-6.3,5.8-9,9.2
				c-0.6,0.8-0.9,2-2.3,2.1c-0.1-0.4-0.3-0.7-0.3-0.9c2.4-4.3,5.8-7.8,9.3-11.3c-3,0.7-6.1,1.5-8.9,2.7c-2.9,1.2-5.6,2.8-8.4,4.3
				c-0.2-0.3-0.4-0.6-0.5-1c3.5-3.1,7.9-4.7,12.2-7c-2.7-0.6-5.5-1.1-8.2-1.7c0-0.2,0-0.5,0.1-0.7c0.6-0.1,1.2-0.5,1.8-0.4
				c2.7,0.5,5.3,1.1,8,1.7c0.7,0.2,1.5,0.7,2.2,0.6c3.1-0.2,6.2-0.5,9.8-0.8c-1.7-1.5-3.1-2.6-4.4-3.9c-1.3-1.3-3.5-1.6-4.3-3.6
				c1-1,1.8-0.3,2.4,0.2c2.6,2.2,5.3,4.4,7.7,6.8c1.3,1.2,2.4,2,4.7,1.7c-0.2-0.2-0.3-0.5-0.5-0.7l1.5-0.9c1,1.7,1.5,1.7,4.4,1.3
				c-0.4-2.1-0.7-4.2-1-6.3l1.6-0.3c0.2,1.2,0.7,2.4,1.1,3.7c1.6-1,3.1-1.9,4.3-2.6c-0.6-0.8-1.2-1.5-1.9-2.3l1.3-1
				c1.2,1.5,3,2.1,5,1.9c2.5-0.3,4.5-2.2,5-4.7c0.5-2.5-0.7-4.8-3.2-6c-1-0.5-2.2-0.7-3.3-1.1c-0.5-0.2-0.9-0.5-1.4-0.8
				c2.1-3.2,5.4-4.3,8.7-3c2.9,1.2,4.7,3.4,5.8,6.3c0.3,0.8,0.3,1.8,1.6,1.9c0.1-0.3,0.5-0.7,0.4-1c-0.7-3.7-2.6-6.8-6.1-8.5
				c-4.8-2.3-9.7-0.8-12.4,3.8c-0.8,1.3-1.6,2.4-3,3.1c-0.8,0.4-1.4,1.1-2,1.7c-0.7,0.7-1.1,1.4-1,2.3l-1.7,0.3
				c-0.4-2.7-0.9-5.3-1.3-7.9c-0.8,0.1-1.5,0.2-2.3,0.3l-0.1-1.7c0.7-0.1,1.3-0.5,1.9-1c0.9-0.9,0.7-1.9-0.5-2.2
				c-2.1-0.4-4-0.1-5.5,2l-1.4-0.6c1.1-3,4.7-4.5,8-3.1c1.3,0.6,1.8,1.6,1.9,3c0.2,2.1,0.4,4.3,0.6,6.8c1.8-1.3,3.5-2,4.6-3.8
				C113.2,68.4,116.9,66.1,121.9,66.7z M139.1,102.1c-1.7-3.2-5.9-5.8-10.8-4.4c0,3.7-1.1,7-3.9,9.6c0.8,1.4,1.4,2.7,2.1,4
				c4.1-1.1,7.4,0.5,10.6,2.3C140.6,109.9,141.2,105.9,139.1,102.1z M126,95.9c-1.1-3.5-4.4-6.3-7.9-6.6c-4-0.4-7.3,1.4-9.3,5.2
				c3.5,1.9,5.6,4.8,6.5,8.4c1.4,0.3,2.8,0.6,4.1,1c1.3,0.4,2.5,1.1,3.7,1.7C126.1,103.2,127.2,99.5,126,95.9z M121.1,106.7
				c-4.2-2.9-10.4-1.8-13.4,2.4c-2.9,4.1-1.8,10,2.4,13.1c4.3,3.1,10.3,2,13.3-2.3C126.2,115.8,125.1,109.5,121.1,106.7z
				 M113.3,103.3c-1.3-5.7-5.5-8.6-10.8-7.7c-5,0.8-8.4,5.3-7.8,10.4c0.6,4.9,4.5,8.3,9.5,8.1C104.8,108.5,107.9,105,113.3,103.3z
				 M138.4,119.2c-1.6-4.9-6.5-7.5-11.4-5.8c0.2,5-2,8.8-6.4,11.4c0.9,4.7,6.5,8.2,12,6.3C137.2,129.5,139.9,124.1,138.4,119.2z
				 M134.6,142.9c1.9-3.5,1.6-6.9-0.5-10c-1.9,0.2-3.7,0.6-5.4,0.5c-1.8-0.1-3.6-0.7-5.5-1.1c-0.3,4.1-2.7,6.8-5.8,9
				c1.7,4.1,4.5,6.2,8.5,6.5C129.7,147.9,132.7,146.2,134.6,142.9z M104.2,116.4c-7.2-1.1-9.9-4.4-11.5-9.9c-6,1.7-7.8,7.8-6.5,11.9
				c1.5,4.7,6.2,7.4,11.1,6.4C101.6,123.8,104.7,120.1,104.2,116.4z M120.8,129.7c-0.6-1.4-1.6-2.6-2.5-4.1
				c-3.8,0.7-7.4-0.1-10.7-2.9c-0.9,0.7-1.6,1.2-2.3,1.8c-2.6,2.4-3.8,6.8-1.8,10.8c1.9,3.6,5.6,5.8,9.6,5.2c4.1-0.6,7.3-3.4,8-7.4
				C121.4,132,121.2,130.7,120.8,129.7z M100.8,132.7c-0.3-3.3,0.5-6.1,2.9-9.1c-3.7,1.9-6.6,3.9-10.8,3
				C94.8,130.3,97,132.4,100.8,132.7z"/>
			<path class="st9" d="M125,69.5c3.5,1.7,5.3,4.8,6.1,8.5c0.1,0.3-0.3,0.7-0.4,1c-1.3-0.1-1.3-1.1-1.6-1.9c-1-2.9-2.8-5.1-5.8-6.3
				c-3.3-1.3-6.6-0.2-8.7,3c0.5,0.3,0.9,0.6,1.4,0.8c1.1,0.4,2.3,0.6,3.3,1.1c2.5,1.2,3.6,3.5,3.2,6c-0.4,2.5-2.4,4.4-5,4.7
				c-2,0.3-3.8-0.4-5-1.9c-0.4-0.4-0.7-0.9-0.9-1.5c-0.6-1.3-0.9-2.7-1.5-4.8c-1.3,1.3-2.1,2.2-3.1,3.2c-0.2-0.4-0.4-0.7-0.4-1.1
				c-0.1-0.8,0.3-1.6,1-2.3c0.6-0.6,1.3-1.3,2-1.7c1.3-0.7,2.2-1.8,3-3.1C115.3,68.7,120.2,67.2,125,69.5z M119.3,77.9
				c-1.8-1.4-3.8-1.9-6.2-1.2c-0.7,2.5-0.7,4.6,0.8,6.6c1,1.3,2.4,1.6,3.9,1.2c1.6-0.4,2.4-1.5,2.8-3
				C121.1,80,120.5,78.8,119.3,77.9z"/>
			<path d="M113.1,76.7c2.4-0.7,4.4-0.2,6.2,1.2c1.2,0.9,1.8,2.1,1.4,3.6c-0.4,1.5-1.3,2.7-2.8,3c-1.5,0.4-2.9,0.1-3.9-1.2
				C112.4,81.4,112.3,79.2,113.1,76.7z M117.9,79.3c-0.8-0.6-1.9-0.8-2.8-1.2c-0.2,0.2-0.5,0.4-0.7,0.5c0.3,1.1,0.3,2.3,0.8,3.2
				c0.3,0.5,1.3,0.9,1.9,0.8c0.6-0.1,1.4-0.8,1.6-1.5C118.8,80.7,118.4,79.7,117.9,79.3z"/>
			<path class="st9" d="M102.6,68.3c1.2,0.2,1.4,1.3,0.5,2.2c-0.5,0.5-1.2,0.8-1.9,1c-1.3,0.3-2.7-0.1-4.1-1.1
				C98.6,68.2,100.5,67.9,102.6,68.3z"/>
			<path d="M101.2,71.4l0.1,1.7c-1.3,0.2-2.6,0.4-4,0.6c0.1,1.2,0.2,2.3,0.4,3.5L96,77.4c-0.3-1.8-0.5-3.6-0.6-5.4
				c-0.1-0.8,0.1-1.6,0.3-2.3l1.4,0.6C98.5,71.3,100,71.7,101.2,71.4z"/>
			<path class="st9" d="M101.3,73.1c0.8-0.1,1.5-0.2,2.3-0.3c0.4,2.6,0.9,5.2,1.3,7.9c0.4,2.2,0.7,4.3,1.1,6.5
				c0.3,2.1,0.7,4.2,1,6.3c-2.9,0.4-3.4,0.4-4.4-1.3c-0.1-0.2-0.3-0.4-0.4-0.7c-2.6-4.5-3.9-9.3-4.6-14.3c-0.1-1.2-0.3-2.3-0.4-3.5
				C98.8,73.4,100.1,73.2,101.3,73.1z"/>
			<path d="M110.1,78.3c0.6,2.1,0.9,3.5,1.5,4.8c0.2,0.6,0.6,1,0.9,1.5l-1.3,1c-0.8-1-1.6-2-2.4-3c-1.3,1.4-1.4,2.8-1.2,4.3
				l-1.6,0.3c-0.4-2.2-0.7-4.4-1.1-6.5l1.7-0.3c0,0.4,0.2,0.7,0.4,1.1C108,80.5,108.8,79.6,110.1,78.3z"/>
			<path class="st10" d="M128.4,97.7c4.8-1.4,9.1,1.2,10.8,4.4c2.1,3.8,1.5,7.8-1.9,11.4c-3.2-1.8-6.5-3.4-10.6-2.3
				c-0.7-1.3-1.4-2.6-2.1-4C127.3,104.7,128.4,101.4,128.4,97.7z"/>
			<path class="st10" d="M118.2,89.3c3.5,0.3,6.8,3.1,7.9,6.6c1.1,3.6,0,7.3-2.9,9.7c-1.2-0.6-2.4-1.2-3.7-1.7
				c-1.3-0.4-2.6-0.7-4.1-1c-0.9-3.6-3-6.5-6.5-8.4C110.9,90.7,114.2,88.9,118.2,89.3z"/>
			<path d="M96,77.4l1.7-0.3c0.7,5,2.1,9.8,4.6,14.3c0.1,0.3,0.3,0.5,0.4,0.7l-1.5,0.9c-1.2-2-2-3.9-3.5-5
				c-4.1-2.8-8.5-5.3-12.9-7.6c-1.9-1-4.2-1.6-6.9-0.6c1.3,3.5,0,6-2.6,7.8c-1.1,0.8-2.4,1.2-3.7,1.7c-2.5,0.9-5.2,1.5-7.7,3.4
				c0.6,0.3,1,0.6,1.4,0.8c3.9,2,5,3.9,3.1,6.3c-0.5,0.7-1.3,1.3-2.2,2.1c-1.3,1-2.6,2.2-3.8,3.4l-1.1-1c1-1,1.9-2.1,2.9-3.1
				c0.4-0.4,0.9-0.7,1.4-1.1c2.5-2.1,2.4-3.2-0.5-4.7c-0.6-0.3-1.3-0.5-1.9-0.8c-1.9-0.9-2.1-2.1-0.4-3.5c0.9-0.7,2-1.3,3-1.8
				c1.9-0.8,3.9-1.3,5.8-2.1c1.4-0.6,2.8-1.4,3.9-2.4c1-0.8,1.2-2.1,0.9-3.5c-0.5-2.5,0.4-3.7,2.9-3.9c2.5-0.2,4.9,0.4,7.1,1.6
				c3.5,1.9,7,3.9,10.8,6c-0.1-0.9-0.2-1.6-0.3-2.3C96.6,81,96.3,79.2,96,77.4z"/>
			<path class="st9" d="M84.8,80.4c4.4,2.3,8.8,4.8,12.9,7.6c1.5,1.1,2.3,3,3.5,5c0.1,0.2,0.3,0.5,0.5,0.7c-2.3,0.3-3.4-0.4-4.7-1.7
				c-2.4-2.4-5.1-4.6-7.7-6.8c-0.6-0.5-1.4-1.2-2.4-0.2c0.8,2,3,2.3,4.3,3.6c1.3,1.3,2.8,2.4,4.4,3.9c-3.6,0.3-6.7,0.6-9.8,0.8
				c-0.7,0-1.5-0.5-2.2-0.6c-2.7-0.6-5.3-1.2-8-1.7c-0.5-0.1-1.2,0.3-1.8,0.4c0,0.2,0,0.5-0.1,0.7c2.7,0.6,5.5,1.1,8.2,1.7
				c-4.3,2.3-8.7,3.9-12.2,7l-1.3-1c1.8-2.4,0.8-4.2-3.1-6.3c-0.4-0.2-0.8-0.4-1.4-0.8c2.5-1.9,5.1-2.5,7.7-3.4
				c1.3-0.5,2.6-0.9,3.7-1.7c2.6-1.9,3.9-4.3,2.6-7.8C80.6,78.8,82.9,79.4,84.8,80.4z"/>
			<path class="st10" d="M107.7,109.1c3-4.2,9.1-5.3,13.4-2.4c4,2.8,5.2,9.1,2.3,13.1c-3,4.3-9,5.4-13.3,2.3
				C105.9,119.2,104.8,113.3,107.7,109.1z"/>
			<path class="st10" d="M102.5,95.6c5.3-0.9,9.4,2,10.8,7.7c-5.4,1.7-8.5,5.2-9.1,10.8c-4.9,0.3-8.9-3.2-9.5-8.1
				C94.2,100.9,97.5,96.5,102.5,95.6z"/>
			<path class="st10" d="M126.9,113.4c4.9-1.7,9.8,0.9,11.4,5.8c1.6,4.9-1.1,10.2-5.9,11.9c-5.4,1.9-11.1-1.6-12-6.3
				C124.9,122.2,127.1,118.4,126.9,113.4z"/>
			<path class="st9" d="M89.8,95.7c2.4-1.7,4.9-1.5,8-0.4c-2.9,2.5-4.7,5.4-4.9,9.1c-2.9,0.8-5.2,2.8-8.3,3.4
				c-1,0.2-1.9,0.9-2.8,1.8c-0.5,0.4-0.9,0.9-1.3,1.3c-0.8,0.7-1.2,1.7-2,2.9c-0.4-1.1-0.8-1.7-1-2.5c-1.2-3.2-3.6-4.7-7-4.9
				c-2.9-0.2-5.6,0.7-8.2,1.9c-0.9,0.4-1.7,0.8-3.2,1.5c1.1-1.7,2.3-3.1,3.5-4.4c1.2-1.3,2.5-2.4,3.8-3.4c1-0.7,1.7-1.4,2.2-2.1
				l1.3,1c0.2,0.3,0.4,0.6,0.5,1c2.8-1.4,5.5-3.1,8.4-4.3c2.8-1.2,5.8-2,8.9-2.7c-3.5,3.6-6.9,7-9.3,11.3c-0.1,0.2,0.1,0.5,0.3,0.9
				c1.4-0.1,1.7-1.3,2.3-2.1C83.4,101.5,86.2,98.3,89.8,95.7z"/>
			<path class="st10" d="M134.1,132.9c2.1,3.1,2.4,6.6,0.5,10c-1.9,3.4-4.9,5.1-8.7,4.8c-4.1-0.2-6.9-2.4-8.5-6.5
				c3.1-2.2,5.6-4.9,5.8-9c2,0.4,3.7,1,5.5,1.1C130.4,133.5,132.2,133.1,134.1,132.9z"/>
			<path class="st10" d="M92.7,106.6c1.6,5.4,4.3,8.7,11.5,9.9c0.5,3.7-2.6,7.4-6.9,8.4c-4.9,1.1-9.6-1.6-11.1-6.4
				C84.9,114.3,86.7,108.3,92.7,106.6z"/>
			<path class="st10" d="M118.3,125.6c0.9,1.5,1.9,2.7,2.5,4.1c0.4,1,0.6,2.3,0.4,3.3c-0.7,4-3.9,6.9-8,7.4c-4,0.5-7.8-1.6-9.6-5.2
				c-2-4-0.8-8.4,1.8-10.8c0.6-0.6,1.4-1.1,2.3-1.8C110.9,125.5,114.5,126.3,118.3,125.6z"/>
			<path d="M81.7,109.5l1.2,1.2c-0.9,0.7-1.5,1.7-2.1,2.6c-0.7,1.1-1.1,2.8-2.8,2.7c-1.7-0.2-1.6-2-2-3.2c-1.4-3.7-3.2-4.9-7.2-4.6
				c-3,0.3-5.7,1.4-8.3,2.9c-1.1,0.6-2.3,1.8-3.4,0.6c-1.1-1.1-0.1-2.5,0.6-3.4c1.1-1.4,2.3-2.7,3.6-4.1l1.1,1
				c-1.2,1.3-2.3,2.7-3.5,4.4c1.4-0.7,2.3-1.1,3.2-1.5c2.6-1.2,5.3-2,8.2-1.9c3.3,0.2,5.8,1.6,7,4.9c0.3,0.7,0.6,1.4,1,2.5
				c0.8-1.2,1.2-2.2,2-2.9C80.8,110.4,81.2,110,81.7,109.5z"/>
			<path class="st10" d="M103.7,123.6c-2.4,3-3.2,5.8-2.9,9.1c-3.8-0.3-6-2.5-7.9-6.1C97.1,127.5,100,125.5,103.7,123.6z"/>
		</g>
		<g>
		</g>
	</g>
</g>
<g>
	<path class="st4" d="M170,104.6c-0.4-0.7-0.8-1.5-1.1-2.3c-0.7-2.2-0.7-4.3-1.7-6.4c-1.2-2.6-2.5-5.1-4.1-7.4
		c-3.2-4.8-7.4-7.8-11.9-11.4c-3.4-2.7-6.6-4.8-10.4-6.4c-1,1.5-2.8,2.4-5.1,1.6c-0.1,0-0.1,0-0.2-0.1c-0.6,0.2-1.2,0.3-1.9,0.3
		c-0.6,0-1.2-0.1-1.7-0.3c0.6,0.5,0.9,1.4,0.6,2.1c-0.4,1-1.5,1.4-2.4,1.1c-14.3-5.6-33.7-2.9-44.1,6.3c-3.6,3.1-5.1,6.2-4.4,8.6
		c0.8,2.4,4,4.4,7.9,4.8c3,0.3,7.5-0.7,12.3-1.8c7.4-1.6,15.7-3.5,23.2-2c9.4,1.9,17,7.4,24.1,13.5c3.2,2.7,7,8,10.9,9.7
		c0.1,0,0.1,0.1,0.2,0.1c2.3,1,9.8,1.5,11.5-0.8C173.2,111.8,171,106.6,170,104.6z"/>
	<path d="M158.6,113.4l-1.5-1.3C145,101.2,137,93.9,124.9,91.4c-7.4-1.5-15.8,0.3-23.2,2c-4.8,1.1-9.3,2.1-12.3,1.8
		c-3.9-0.4-7.1-2.3-7.9-4.8C80.9,88,82.4,85,86,81.8c10.4-9.2,29.8-11.9,44.1-6.3c1,0.4,2-0.1,2.4-1.1c0.3-0.8,0-1.6-0.6-2.1
		c-0.3-0.1-0.5-0.2-0.8-0.4c-0.4-0.1-0.8-0.1-1.1-0.3c-0.3-0.1-0.5-0.2-0.8-0.3c0,0-0.1,0-0.2-0.1c-0.1-0.1-0.3-0.1-0.4-0.2
		c-0.1,0-0.2,0-0.3-0.1c-0.2,0-0.4-0.1-0.5-0.2c0,0-0.1,0-0.1-0.1c-0.3-0.1-0.6-0.1-0.8-0.2c-0.1,0-0.1,0-0.2,0
		c-0.4-0.1-0.9-0.2-1.2-0.3c-0.2,0-0.4-0.1-0.6-0.1c-0.5,0-0.9-0.1-1.4-0.1c-1.3-0.1-2.3-0.3-3.4-0.7c-0.1,0-0.2,0-0.3,0
		c-5-0.4-10-0.2-15,0.1c-2.6,0.8-5.3,1.6-7.9,2.5c-4.8,1.6-9.6,3.7-13.4,7.1c-6.1,5.4-6.3,9.8-5.5,12.5c1.2,3.9,5.6,6.8,11.1,7.4
		c3.6,0.4,8.2-0.6,13.5-1.8c7-1.6,15-3.3,21.6-1.9c9.9,2,16.8,7.6,26.8,16.5c0.1,0.2,0.1,0.4,0.2,0.6c0.3,0.2,0.5,0.4,0.7,0.7
		c1.2,1.6,2.7,2.8,4.4,3.9c0-0.2-0.1-0.4-0.1-0.6c0.3,0.2,0.6,0.4,0.9,0.4c0.5-0.2,1-0.3,1.4-0.4c0.1-0.1,0.2-0.1,0.2-0.2
		C159.4,115.3,159.3,114.1,158.6,113.4z"/>
</g>
</svg>
